HIERARCHY
ROOT Hips
{
  OFFSET -331.093 83.8371 -317.828
  CHANNELS 6 Xposition Yposition Zposition Zrotation Xrotation Yrotation
  JOINT LeftUpLeg
  {
    OFFSET 8.64259 1.95398 -2.38835
    CHANNELS 3 Zrotation Xrotation Yrotation
    JOINT LeftLeg
    {
      OFFSET 43.7702 0 0
      CHANNELS 3 Zrotation Xrotation Yrotation
      JOINT LeftFoot
      {
        OFFSET 40.6238 0 0
        CHANNELS 3 Zrotation Xrotation Yrotation
        JOINT LeftToeBase
        {
          OFFSET 12.7242 0 0
          CHANNELS 3 Zrotation Xrotation Yrotation
          End Site
          {
            OFFSET 0 0 0
          }
        }
      }
    }
  }
  JOINT RightUpLeg
  {
    OFFSET -8.2249 1.95398 -2.59336
    CHANNELS 3 Zrotation Xrotation Yrotation
    JOINT RightLeg
    {
      OFFSET 43.5653 0 0
      CHANNELS 3 Zrotation Xrotation Yrotation
      JOINT RightFoot
      {
        OFFSET 40.6238 0 0
        CHANNELS 3 Zrotation Xrotation Yrotation
        JOINT RightToeBase
        {
          OFFSET 12.7242 0 0
          CHANNELS 3 Zrotation Xrotation Yrotation
          End Site
          {
            OFFSET 0 0 0
          }
        }
      }
    }
  }
  JOINT Spine
  {
    OFFSET 0.165834 0.87714 6.61349
    CHANNELS 3 Zrotation Xrotation Yrotation
    JOINT Spine1
    {
      OFFSET 7.38963 1.71661e-005 0
      CHANNELS 3 Zrotation Xrotation Yrotation
      JOINT Spine2
      {
        OFFSET 11.9445 1.14441e-005 0
        CHANNELS 3 Zrotation Xrotation Yrotation
        JOINT Spine3
        {
          OFFSET 14.7254 4.19617e-005 0
          CHANNELS 3 Zrotation Xrotation Yrotation
          JOINT Spine4
          {
            OFFSET 10.9679 0 0
            CHANNELS 3 Zrotation Xrotation Yrotation
            JOINT RightShoulder
            {
              OFFSET 2.46616 -1.6653 3.69651
              CHANNELS 3 Zrotation Xrotation Yrotation
              JOINT RightArm
              {
                OFFSET 13.0012 0 0
                CHANNELS 3 Zrotation Xrotation Yrotation
                JOINT RightForeArm
                {
                  OFFSET 28.7848 1.62311e-005 0
                  CHANNELS 3 Zrotation Xrotation Yrotation
                  JOINT RightHand
                  {
                    OFFSET 26.5688 1.62095e-005 0
                    CHANNELS 3 Zrotation Xrotation Yrotation
                    End Site
                    {
                      OFFSET 0 0 0
                    }
                  }
                }
              }
            }
            JOINT LeftShoulder
            {
              OFFSET 2.38034 -1.29275 -3.7523
              CHANNELS 3 Zrotation Xrotation Yrotation
              JOINT LeftArm
              {
                OFFSET 16.3182 6.07031e-005 0
                CHANNELS 3 Zrotation Xrotation Yrotation
                JOINT LeftForeArm
                {
                  OFFSET 27.0901 0 0
                  CHANNELS 3 Zrotation Xrotation Yrotation
                  JOINT LeftHand
                  {
                    OFFSET 24.5451 1.51738e-005 0
                    CHANNELS 3 Zrotation Xrotation Yrotation
                    End Site
                    {
                      OFFSET 0 0 0
                    }
                  }
                }
              }
            }
            JOINT Neck
            {
              OFFSET 5.0226 -0.0266342 0
              CHANNELS 3 Zrotation Xrotation Yrotation
              JOINT Head
              {
                OFFSET 6.69364 2.86102e-005 0
                CHANNELS 3 Zrotation Xrotation Yrotation
                End Site
                {
                  OFFSET 0 0 0
                }
              }
            }
          }
        }
      }
    }
  }
}
MOTION
Frames:	7
Frame Time:	0.0416667
25.6395 79.8778 -307.502 65.5959 -19.4685 84.9457 163.434 56.6795 101.22 -96.7081 29.3802 38.9585 153.81 25.2894 -57.4444 6.81492 -16.6893 12.5467 -148.743 28.9018 143.423 40.3753 21.981 -66.0719 -2.13717 9.18464 18.702 73.8515 -31.4022 -51.6165 -7.41381 6.16776 -93.3004 14.344 -16.3026 -4.3535 2.77362 -16.4778 -3.61323 -20.3807 -14.2312 -9.13291 -0.368022 -14.2312 -9.13292 91.8965 -41.2404 -99.445 37.9054 -8.49092 43.8029 -18.1752 35.9106 -144.316 -1.38333 -0.795745 -63.0556 -93.1129 -45.1769 73.2383 -36.5334 18.25 23.2195 19.6426 -11.6436 -96.9609 32.5026 3.73914 7.78079 -7.2871 4.50281 3.83708 17.4576 4.52391 2.30918 
24.3322 82.6376 -300.491 63.9748 -20.9634 84.2648 155.318 45.5896 118.839 -99.8569 50.7583 43.0275 137.055 34.2954 -31.2301 13.0635 -11.2122 6.40618 -157.772 29.5124 138.527 31.6912 42.432 -49.3946 13.2471 9.88526 13.4152 84.6855 -26.2558 -35.4776 -6.86112 6.06436 -93.4257 14.5246 -15.2699 -4.71533 2.93953 -15.4621 -4.02405 -20.1045 -13.1415 -9.146 -0.091836 -13.1415 -9.146 91.618 -40.0892 -100.213 37.3857 -4.2389 39.7884 -14.0087 28.5886 -145.216 1.65345 -2.12538 -60.7435 -94.0698 -46.9874 72.3038 -35.9675 16.4231 24.521 22.7131 -6.60144 -88.7415 33.6949 4.08932 8.41663 3.8637 2.06514 3.09106 3.97448 1.69043 3.74425 
22.6559 84.7849 -296.212 62.1407 -26.4646 83.0177 152.45 44.3853 124.284 -92.8621 47.8569 29.8224 92.425 22.4497 -1.83373 48.3724 7.91617 -14.5907 -162.067 25.952 134.247 16.5669 56.3886 -27.1794 29.8471 8.15426 8.15551 85.9834 -15.3285 -19.8261 -6.05631 6.02892 -93.324 14.6092 -13.6272 -4.7234 3.00472 -13.8214 -4.10907 -19.9098 -11.5755 -8.63804 0.102878 -11.5755 -8.63804 91.8047 -38.2246 -100.372 39.987 -1.52088 39.6898 -7.01461 17.9364 -147.319 10.3423 -4.95019 -46.6084 -93.582 -47.6495 73.2381 -37.4559 15.1612 30.3148 20.5318 -5.8093 -87.0795 33.8694 4.11765 8.42677 4.25273 1.48964 3.79056 3.33924 0.8811 1.88619 
21.2422 88.842 -292.126 67.9688 -34.6466 86.5347 156.958 50.1377 114.311 -89.8239 45.4066 20.9021 69.695 10.5803 10.6367 48.2348 16.2623 4.26598 -159.174 14.8039 137.092 20.8441 58.836 -23.7234 37.1854 5.18379 4.3946 79.826 -6.50731 -8.97138 -5.23056 6.69239 -92.7831 13.3179 -11.7202 -4.0964 1.69566 -11.8889 -3.57032 -21.1165 -9.94608 -7.45284 -1.10387 -9.94606 -7.45283 92.3815 -36.8926 -99.6924 42.6632 -2.27354 35.5187 -2.40404 10.3742 -141.355 44.6265 2.18353 -2.22556 -91.6747 -46.2549 75.7629 -41.7789 15.7883 37.1052 19.3395 -7.44428 -88.6715 34.3516 4.11497 8.24942 2.49232 0.126892 3.47953 4.63615 -0.446776 -0.169926 
21.0165 91.718 -287.887 77.5891 -41.4071 91.6392 169.055 49.5057 99.3704 -75.6713 47.5404 13.1431 65.9195 5.62427 3.66869 34.9038 14.996 27.6716 -157.919 2.36556 139.192 14.5409 59.1194 -16.7928 45.738 4.12306 2.7308 52.1214 0.626697 3.15232 -4.54376 7.44059 -92.059 11.8848 -10.0035 -3.03504 0.250191 -10.1273 -2.58775 -22.5024 -8.62737 -5.91798 -2.48977 -8.62738 -5.91798 92.8837 -35.6634 -99.096 38.456 -18.4621 10.321 7.92052 12.5072 -118.553 80.8257 18.8856 16.1399 -89.9304 -43.8116 77.8769 -46.4275 15.6857 43.1246 20.0467 -9.22441 -90.895 34.7117 4.02529 7.85894 1.40126 -0.933689 3.0156 5.42447 -1.47956 -1.63554 
21.7536 93.3192 -282.342 87.7121 -48.0619 96.3259 179.703 42.3009 87.7499 -53.2525 53.9548 2.18778 56.323 0.438363 3.67167 37.7516 18.21 26.9583 -158.211 -13.8353 136.547 4.2176 45.5885 -5.70115 40.6127 5.21765 4.71827 39.4244 -0.999208 -4.32806 -3.84872 8.04427 -91.3765 10.7307 -8.29857 -1.97845 -0.91452 -8.37753 -1.60888 -23.613 -7.31892 -4.39227 -3.60037 -7.31892 -4.39227 93.1411 -34.1832 -99.0009 38.8689 -19.6825 10.846 -0.180337 7.85689 -108.783 89.1425 12.7822 7.21138 -89.6853 -43.0399 78.0819 -48.9881 14.8309 46.6073 19.9071 -10.2606 -92.2058 33.4565 3.88732 7.93262 1.28452 -1.32552 4.04046 5.26071 -2.09202 -2.87386 
22.5083 95.0335 -274.779 94.9869 -57.0529 99.4456 -177.657 35.3135 84.1541 -35.5832 43.3492 -4.35061 56.1289 -2.84477 -0.847194 34.6746 10.197 17.1248 -168.586 -32.16 122.009 -4.55027 25.5259 5.25484 33.3719 4.94702 5.20567 25.2129 -1.04397 -11.8785 -2.9172 8.20238 -90.6849 10.4559 -6.12488 -0.819358 -1.20064 -6.15499 -0.547986 -23.8346 -5.59467 -2.62768 -3.82197 -5.59468 -2.62769 93.3556 -34.0609 -98.6287 39.4497 -21.7141 13.0896 -6.86806 8.87562 -106.5 85.0377 8.02806 3.47089 -88.1504 -40.7386 80.0468 -52.5306 14.2407 49.3544 20.4685 -11.3051 -93.0104 34.2041 3.09266 5.2575 1.47297 -1.22703 3.04427 3.60848 -1.80241 -2.72923 
